<svg width="161" height="30" viewBox="0 0 161 30" fill="none" xmlns="http://www.w3.org/2000/svg">
<path d="M0.96 14.36L13.62 6.71V10.97L6.81 15.23L13.62 19.31V23.81L0.96 16.31V14.36ZM37.5565 7.28C37.3765 7.08 36.9965 6.82 36.4165 6.5C35.8365 6.16 35.1365 5.86 34.3165 5.6C33.5165 5.32 32.6865 5.18 31.8265 5.18C29.5665 5.18 28.4365 5.98 28.4365 7.58C28.4365 8.16 28.6165 8.62 28.9765 8.96C29.3365 9.3 29.8765 9.59 30.5965 9.83C31.3165 10.07 32.2165 10.33 33.2965 10.61C34.6965 10.97 35.9065 11.39 36.9265 11.87C37.9665 12.35 38.7565 12.99 39.2965 13.79C39.8565 14.57 40.1365 15.61 40.1365 16.91C40.1365 18.43 39.7665 19.66 39.0265 20.6C38.3065 21.52 37.3465 22.19 36.1465 22.61C34.9465 23.03 33.6465 23.24 32.2465 23.24C30.6465 23.24 29.0565 23 27.4765 22.52C25.9165 22.02 24.5265 21.34 23.3065 20.48L25.1365 16.91C25.3165 17.09 25.6365 17.33 26.0965 17.63C26.5565 17.91 27.1165 18.2 27.7765 18.5C28.4365 18.78 29.1565 19.02 29.9365 19.22C30.7165 19.42 31.5065 19.52 32.3065 19.52C34.5865 19.52 35.7265 18.79 35.7265 17.33C35.7265 16.71 35.4965 16.21 35.0365 15.83C34.5765 15.45 33.9265 15.13 33.0865 14.87C32.2665 14.61 31.3065 14.32 30.2065 14C28.8465 13.62 27.7165 13.2 26.8165 12.74C25.9365 12.26 25.2765 11.67 24.8365 10.97C24.3965 10.25 24.1765 9.34 24.1765 8.24C24.1765 6.78 24.5165 5.56 25.1965 4.58C25.8965 3.58 26.8365 2.83 28.0165 2.33C29.1965 1.81 30.5065 1.55 31.9465 1.55C33.4265 1.55 34.8065 1.79 36.0865 2.27C37.3665 2.75 38.4665 3.3 39.3865 3.92L37.5565 7.28ZM57.397 23H53.377V14.18C53.377 12.92 53.157 12 52.717 11.42C52.277 10.84 51.667 10.55 50.887 10.55C50.347 10.55 49.797 10.69 49.237 10.97C48.697 11.25 48.207 11.64 47.767 12.14C47.327 12.62 47.007 13.18 46.807 13.82V23H42.787V7.28H46.417V10.19C46.997 9.21 47.837 8.44 48.937 7.88C50.037 7.3 51.277 7.01 52.657 7.01C53.637 7.01 54.437 7.19 55.057 7.55C55.677 7.89 56.157 8.36 56.497 8.96C56.837 9.54 57.067 10.2 57.187 10.94C57.327 11.68 57.397 12.43 57.397 13.19V23ZM60.8925 5.09V1.1H64.9125V5.09H60.8925ZM60.8925 23V7.28H64.9125V23H60.8925ZM77.959 23.3C76.719 23.3 75.639 23.02 74.719 22.46C73.799 21.9 73.079 21.16 72.559 20.24V29.39H68.539V7.28H72.049V9.98C72.629 9.06 73.379 8.34 74.299 7.82C75.239 7.28 76.299 7.01 77.479 7.01C78.899 7.01 80.159 7.38 81.259 8.12C82.359 8.84 83.229 9.82 83.869 11.06C84.509 12.28 84.829 13.63 84.829 15.11C84.829 16.65 84.529 18.04 83.929 19.28C83.349 20.5 82.539 21.48 81.499 22.22C80.479 22.94 79.299 23.3 77.959 23.3ZM76.609 19.88C77.429 19.88 78.139 19.66 78.739 19.22C79.359 18.76 79.839 18.17 80.179 17.45C80.539 16.71 80.719 15.93 80.719 15.11C80.719 14.23 80.529 13.44 80.149 12.74C79.769 12.02 79.249 11.46 78.589 11.06C77.949 10.64 77.209 10.43 76.369 10.43C75.609 10.43 74.849 10.68 74.089 11.18C73.329 11.68 72.819 12.31 72.559 13.07V16.76C72.919 17.64 73.469 18.38 74.209 18.98C74.949 19.58 75.749 19.88 76.609 19.88ZM96.9727 23.3C95.7327 23.3 94.6527 23.02 93.7327 22.46C92.8127 21.9 92.0927 21.16 91.5727 20.24V29.39H87.5527V7.28H91.0627V9.98C91.6427 9.06 92.3927 8.34 93.3127 7.82C94.2527 7.28 95.3127 7.01 96.4927 7.01C97.9127 7.01 99.1727 7.38 100.273 8.12C101.373 8.84 102.243 9.82 102.883 11.06C103.523 12.28 103.843 13.63 103.843 15.11C103.843 16.65 103.543 18.04 102.943 19.28C102.363 20.5 101.553 21.48 100.513 22.22C99.4927 22.94 98.3127 23.3 96.9727 23.3ZM95.6227 19.88C96.4427 19.88 97.1527 19.66 97.7527 19.22C98.3727 18.76 98.8527 18.17 99.1927 17.45C99.5527 16.71 99.7327 15.93 99.7327 15.11C99.7327 14.23 99.5427 13.44 99.1627 12.74C98.7827 12.02 98.2627 11.46 97.6027 11.06C96.9627 10.64 96.2227 10.43 95.3827 10.43C94.6227 10.43 93.8627 10.68 93.1027 11.18C92.3427 11.68 91.8327 12.31 91.5727 13.07V16.76C91.9327 17.64 92.4827 18.38 93.2227 18.98C93.9627 19.58 94.7627 19.88 95.6227 19.88ZM106.566 5.09V1.1H110.586V5.09H106.566ZM106.566 23V7.28H110.586V23H106.566ZM115.173 23V11.18H113.103V8.12H115.173V7.16C115.173 5.22 115.643 3.68 116.583 2.54C117.543 1.38 118.823 0.8 120.423 0.8C121.703 0.8 122.993 1.11 124.293 1.73L123.483 4.76C123.183 4.6 122.823 4.47 122.403 4.37C122.003 4.25 121.633 4.19 121.293 4.19C119.893 4.19 119.193 5.13 119.193 7.01V8.12H123.033V11.18H119.193V23H115.173ZM125.646 26.06C126.386 26.26 126.986 26.36 127.446 26.36C127.986 26.36 128.416 26.13 128.736 25.67C129.076 25.23 129.456 24.34 129.876 23L123.666 7.28H127.836L132.066 18.89L135.786 7.28H139.626L133.026 26.12C132.666 27.2 132.016 28.09 131.076 28.79C130.156 29.51 129.016 29.87 127.656 29.87C126.996 29.87 126.326 29.76 125.646 29.54V26.06ZM160.916 16.31L148.256 23.81V19.31L155.066 15.23L148.256 10.97V6.71L160.916 14.36V16.31Z" fill="white"/>
</svg>
